<svg viewBox="0 0 48 48" fill="none" xmlns="http://www.w3.org/2000/svg">
<path fill-rule="evenodd" clip-rule="evenodd" d="M23.1283 5.728L31.0031 10.6497L26.1446 19.3951L23.5221 17.9382L25.9496 13.5687C22.0169 14.862 19.5368 16.4852 17.9958 18.141C16.0818 20.1975 15.5 22.429 15.5 24.5C15.5 26.571 16.0818 28.8025 17.9958 30.859C19.5368 32.5148 22.0169 34.138 25.9496 35.4313L23.5221 31.0618L26.1446 29.6049L31.0031 38.3503L23.1283 43.272L21.5383 40.728L25.3029 38.3752C20.8634 36.9555 17.8151 35.0684 15.7997 32.9029C13.2818 30.1975 12.5 27.1909 12.5 24.5C12.5 21.8091 13.2818 18.8025 15.7997 16.0971C17.8151 13.9316 20.8634 12.0445 25.3029 10.6248L21.5383 8.27199L23.1283 5.728Z" fill="black"/>
</svg>
